{
  "accessors": [
    {
      "bufferView": 2,
      "componentType": 5126,
      "count": 2087,
      "max": [
        6.7463207244873047,
        1.9643590450286865,
        87.23016357421875
      ],
      "min": [
        -6.7318587303161621,
        -0.73399877548217773,
        -1.1474370467112749e-06
      ],
      "type": "VEC3"
    },
    {
      "bufferView": 2,
      "byteOffset": 25044,
      "componentType": 5126,
      "count": 2087,
      "max": [
        1,
        1,
        1
      ],
      "min": [
        -1,
        -1,
        -1
      ],
      "type": "VEC3"
    },
    {
      "bufferView": 3,
      "componentType": 5126,
      "count": 2087,
      "max": [
        1,
        1,
        1,
        1
      ],
      "min": [
        -1,
        -1,
        -1,
        -1
      ],
      "type": "VEC4"
    },
    {
      "bufferView": 1,
      "componentType": 5126,
      "count": 2087,
      "max": [
        0.99087810516357422,
        3.9969992637634277
      ],
      "min": [
        0.0087817013263702393,
        0.00065082311630249023
      ],
      "type": "VEC2"
    },
    {
      "bufferView": 1,
      "byteOffset": 16696,
      "componentType": 5126,
      "count": 2087,
      "max": [
        0.99087810516357422,
        3.9969992637634277
      ],
      "min": [
        0.0087817013263702393,
        0.00065082311630249023
      ],
      "type": "VEC2"
    },
    {
      "bufferView": 0,
      "componentType": 5125,
      "count": 7836,
      "max": [
        2086
      ],
      "min": [
        0
      ],
      "type": "SCALAR"
    }
  ],
  "asset": {
    "extras": {
      "author": "niver_mk (https://sketchfab.com/niver_mk)",
      "license": "CC-BY-4.0 (http://creativecommons.org/licenses/by/4.0/)",
      "source": "https://sketchfab.com/models/adf229c426194740ab0ec9cdb00262b4",
      "title": "Ladder"
    },
    "generator": "Sketchfab-3.50.4",
    "version": "2.0"
  },
  "bufferViews": [
    {
      "buffer": 0,
      "byteLength": 31344,
      "byteOffset": 0,
      "name": "floatBufferViews",
      "target": 34963
    },
    {
      "buffer": 0,
      "byteLength": 33392,
      "byteOffset": 31344,
      "byteStride": 8,
      "name": "floatBufferViews",
      "target": 34962
    },
    {
      "buffer": 0,
      "byteLength": 50088,
      "byteOffset": 64736,
      "byteStride": 12,
      "name": "floatBufferViews",
      "target": 34962
    },
    {
      "buffer": 0,
      "byteLength": 33392,
      "byteOffset": 114824,
      "byteStride": 16,
      "name": "floatBufferViews",
      "target": 34962
    }
  ],
  "buffers": [
    {
      "byteLength": 148216,
      "uri": "scene.bin"
    }
  ],
  "images": [
    {
      "uri": "textures/ladder_material_metallicRoughness.png"
    },
    {
      "uri": "textures/ladder_material_normal.png"
    },
    {
      "uri": "textures/ladder_material_baseColor.png"
    }
  ],
  "materials": [
    {
      "doubleSided": true,
      "name": "ladder_material",
      "normalTexture": {
        "index": 1,
        "scale": 1,
        "texCoord": 0
      },
      "occlusionTexture": {
        "index": 0,
        "strength": 1,
        "texCoord": 0
      },
      "pbrMetallicRoughness": {
        "baseColorFactor": [
          1,
          1,
          1,
          1
        ],
        "baseColorTexture": {
          "index": 2,
          "texCoord": 0
        },
        "metallicFactor": 1,
        "metallicRoughnessTexture": {
          "index": 0,
          "texCoord": 0
        },
        "roughnessFactor": 1
      }
    }
  ],
  "meshes": [
    {
      "name": "ladder_ladder_material_0",
      "primitives": [
        {
          "attributes": {
            "NORMAL": 1,
            "POSITION": 0,
            "TANGENT": 2,
            "TEXCOORD_0": 3,
            "TEXCOORD_1": 4
          },
          "indices": 5,
          "material": 0,
          "mode": 4
        }
      ]
    }
  ],
  "nodes": [
    {
      "children": [
        1
      ],
      "name": "RootNode (gltf orientation matrix)",
      "rotation": [
        -0.70710678118654746,
        -0,
        -0,
        0.70710678118654757
      ]
    },
    {
      "children": [
        2
      ],
      "matrix": [
        0.53822141885757446,
        -0.62679755687713623,
        -0.56342035531997681,
        0,
        0.35798710584640503,
        0.77522575855255127,
        -0.52045196294784546,
        0,
        0.76299601793289185,
        0.078421197831630707,
        0.64162856340408325,
        0,
        -167.57405090332031,
        -16.521812438964844,
        79.652763366699219,
        1
      ],
      "name": "RootNode (model correction matrix)"
    },
    {
      "children": [
        3
      ],
      "matrix": [
        1,
        0,
        0,
        0,
        0,
        0,
        1,
        0,
        0,
        -1,
        0,
        0,
        0,
        0,
        0,
        1
      ],
      "name": "ladder.FBX"
    },
    {
      "children": [
        4
      ],
      "name": "RootNode"
    },
    {
      "children": [
        5
      ],
      "matrix": [
        5,
        0,
        0,
        0,
        -0,
        -8.1460339695915707e-07,
        -4.9999999999999343,
        0,
        0,
        4.9999999999999343,
        -8.1460339695915707e-07,
        0,
        -0.21396258473396301,
        0,
        0,
        1
      ],
      "name": "ladder"
    },
    {
      "mesh": 0,
      "name": "ladder_ladder_material_0"
    }
  ],
  "samplers": [
    {
      "magFilter": 9729,
      "minFilter": 9987,
      "wrapS": 10497,
      "wrapT": 10497
    }
  ],
  "scene": 0,
  "scenes": [
    {
      "name": "OSG_Scene",
      "nodes": [
        0
      ]
    }
  ],
  "textures": [
    {
      "sampler": 0,
      "source": 0
    },
    {
      "sampler": 0,
      "source": 1
    },
    {
      "sampler": 0,
      "source": 2
    }
  ]
}

