{
  "accessors": [
    {
      "bufferView": 2,
      "componentType": 5126,
      "count": 687,
      "max": [
        14.739609718322754,
        29.141620635986328,
        23.78759765625
      ],
      "min": [
        -11.804322242736816,
        -28.68635368347168,
        -0.25049877166748047
      ],
      "type": "VEC3"
    },
    {
      "bufferView": 2,
      "byteOffset": 8244,
      "componentType": 5126,
      "count": 687,
      "max": [
        1,
        1,
        1
      ],
      "min": [
        -1,
        -1,
        -1
      ],
      "type": "VEC3"
    },
    {
      "bufferView": 3,
      "componentType": 5126,
      "count": 687,
      "max": [
        1,
        1,
        1,
        1
      ],
      "min": [
        -1,
        -1,
        -1,
        1
      ],
      "type": "VEC4"
    },
    {
      "bufferView": 1,
      "componentType": 5126,
      "count": 687,
      "max": [
        0.99840611219406128,
        0.91666662693023682
      ],
      "min": [
        0.0019076963653787971,
        0.012491115368902683
      ],
      "type": "VEC2"
    },
    {
      "bufferView": 1,
      "byteOffset": 5496,
      "componentType": 5126,
      "count": 687,
      "max": [
        0.99840611219406128,
        0.91666662693023682
      ],
      "min": [
        0.0019076963653787971,
        0.012491115368902683
      ],
      "type": "VEC2"
    },
    {
      "bufferView": 1,
      "byteOffset": 10992,
      "componentType": 5126,
      "count": 687,
      "max": [
        0.99840611219406128,
        0.91666662693023682
      ],
      "min": [
        0.0019076963653787971,
        0.012491115368902683
      ],
      "type": "VEC2"
    },
    {
      "bufferView": 1,
      "byteOffset": 16488,
      "componentType": 5126,
      "count": 687,
      "max": [
        0.99840611219406128,
        0.91666662693023682
      ],
      "min": [
        0.0019076963653787971,
        0.012491115368902683
      ],
      "type": "VEC2"
    },
    {
      "bufferView": 1,
      "byteOffset": 21984,
      "componentType": 5126,
      "count": 687,
      "max": [
        0.99840611219406128,
        0.91666662693023682
      ],
      "min": [
        0.0019076963653787971,
        0.012491115368902683
      ],
      "type": "VEC2"
    },
    {
      "bufferView": 1,
      "byteOffset": 27480,
      "componentType": 5126,
      "count": 687,
      "max": [
        0.99840611219406128,
        0.91666662693023682
      ],
      "min": [
        0.0019076963653787971,
        0.012491115368902683
      ],
      "type": "VEC2"
    },
    {
      "bufferView": 1,
      "byteOffset": 32976,
      "componentType": 5126,
      "count": 687,
      "max": [
        0.99840611219406128,
        0.91666662693023682
      ],
      "min": [
        0.0019076963653787971,
        0.012491115368902683
      ],
      "type": "VEC2"
    },
    {
      "bufferView": 1,
      "byteOffset": 38472,
      "componentType": 5126,
      "count": 687,
      "max": [
        0.99840611219406128,
        0.91666662693023682
      ],
      "min": [
        0.0019076963653787971,
        0.012491115368902683
      ],
      "type": "VEC2"
    },
    {
      "bufferView": 1,
      "byteOffset": 43968,
      "componentType": 5126,
      "count": 687,
      "max": [
        0.99840611219406128,
        0.91666662693023682
      ],
      "min": [
        0.0019076963653787971,
        0.012491115368902683
      ],
      "type": "VEC2"
    },
    {
      "bufferView": 1,
      "byteOffset": 49464,
      "componentType": 5126,
      "count": 687,
      "max": [
        0.99840611219406128,
        0.91666662693023682
      ],
      "min": [
        0.0019076963653787971,
        0.012491115368902683
      ],
      "type": "VEC2"
    },
    {
      "bufferView": 0,
      "componentType": 5125,
      "count": 1656,
      "max": [
        686
      ],
      "min": [
        0
      ],
      "type": "SCALAR"
    }
  ],
  "asset": {
    "extras": {
      "author": "Thunder (https://sketchfab.com/thunderpwn)",
      "license": "CC-BY-SA-4.0 (http://creativecommons.org/licenses/by-sa/4.0/)",
      "source": "https://sketchfab.com/3d-models/workbench-or-craftingtable-a6cc68b260e84883aa4d4c6d533ffc9e",
      "title": "Workbench Or Craftingtable"
    },
    "generator": "Sketchfab-9.11.0",
    "version": "2.0"
  },
  "bufferViews": [
    {
      "buffer": 0,
      "byteLength": 6624,
      "byteOffset": 0,
      "name": "floatBufferViews",
      "target": 34963
    },
    {
      "buffer": 0,
      "byteLength": 54960,
      "byteOffset": 6624,
      "byteStride": 8,
      "name": "floatBufferViews",
      "target": 34962
    },
    {
      "buffer": 0,
      "byteLength": 16488,
      "byteOffset": 61584,
      "byteStride": 12,
      "name": "floatBufferViews",
      "target": 34962
    },
    {
      "buffer": 0,
      "byteLength": 10992,
      "byteOffset": 78072,
      "byteStride": 16,
      "name": "floatBufferViews",
      "target": 34962
    }
  ],
  "buffers": [
    {
      "byteLength": 89064,
      "uri": "scene.bin"
    }
  ],
  "images": [
    {
      "uri": "textures/Handle_material_baseColor.png"
    },
    {
      "uri": "textures/Handle_material_metallicRoughness.png"
    },
    {
      "uri": "textures/Handle_material_normal.png"
    }
  ],
  "materials": [
    {
      "doubleSided": true,
      "emissiveFactor": [
        0,
        0,
        0
      ],
      "name": "Handle_material",
      "normalTexture": {
        "index": 2,
        "scale": 1,
        "texCoord": 0
      },
      "pbrMetallicRoughness": {
        "baseColorFactor": [
          1,
          1,
          1,
          1
        ],
        "baseColorTexture": {
          "index": 0,
          "texCoord": 0
        },
        "metallicFactor": 1,
        "metallicRoughnessTexture": {
          "index": 1,
          "texCoord": 0
        },
        "roughnessFactor": 1
      }
    }
  ],
  "meshes": [
    {
      "name": "Cube_Handle_material_0",
      "primitives": [
        {
          "attributes": {
            "NORMAL": 1,
            "POSITION": 0,
            "TANGENT": 2,
            "TEXCOORD_0": 3,
            "TEXCOORD_1": 4,
            "TEXCOORD_2": 5,
            "TEXCOORD_3": 6,
            "TEXCOORD_4": 7,
            "TEXCOORD_5": 8,
            "TEXCOORD_6": 9,
            "TEXCOORD_7": 10,
            "TEXCOORD_8": 11,
            "TEXCOORD_9": 12
          },
          "indices": 13,
          "material": 0,
          "mode": 4
        }
      ]
    }
  ],
  "nodes": [
    {
      "children": [
        1
      ],
      "name": "RootNode (gltf orientation matrix)",
      "rotation": [
        -0.70710678118654746,
        -0,
        -0,
        0.70710678118654757
      ]
    },
    {
      "children": [
        2
      ],
      "name": "RootNode (model correction matrix)"
    },
    {
      "children": [
        3
      ],
      "matrix": [
        1,
        0,
        0,
        0,
        0,
        0,
        1,
        0,
        0,
        -1,
        0,
        0,
        0,
        0,
        0,
        1
      ],
      "name": "craftingtable.fbx"
    },
    {
      "children": [
        4
      ],
      "name": "RootNode"
    },
    {
      "children": [
        5
      ],
      "matrix": [
        3.5223150253295898,
        0,
        0,
        0,
        0,
        -4.6902461483605795e-07,
        -3.5223150253295588,
        0,
        0,
        3.5223150253295588,
        -4.6902461483605795e-07,
        0,
        0,
        0,
        0,
        1
      ],
      "name": "Cube"
    },
    {
      "mesh": 0,
      "name": "Cube_Handle_material_0"
    }
  ],
  "samplers": [
    {
      "magFilter": 9729,
      "minFilter": 9987,
      "wrapS": 10497,
      "wrapT": 10497
    }
  ],
  "scene": 0,
  "scenes": [
    {
      "name": "OSG_Scene",
      "nodes": [
        0
      ]
    }
  ],
  "textures": [
    {
      "sampler": 0,
      "source": 0
    },
    {
      "sampler": 0,
      "source": 1
    },
    {
      "sampler": 0,
      "source": 2
    }
  ]
}

