{
  "accessors": [
    {
      "bufferView": 1,
      "componentType": 5126,
      "count": 3692,
      "max": [
        1.7384095191955566,
        5.5303726196289062,
        0.55909347534179688
      ],
      "min": [
        -1.7383944988250732,
        0.00023453682661056519,
        -0.45095551013946533
      ],
      "type": "VEC3"
    },
    {
      "bufferView": 1,
      "byteOffset": 44304,
      "componentType": 5126,
      "count": 3692,
      "max": [
        0.99986803531646729,
        0.99231058359146118,
        0.99977600574493408
      ],
      "min": [
        -0.99987810850143433,
        -0.9990924596786499,
        -0.99515700340270996
      ],
      "type": "VEC3"
    },
    {
      "bufferView": 2,
      "componentType": 5126,
      "count": 3692,
      "max": [
        0.99987936019897461,
        0.99998199939727783,
        0.999778151512146,
        1
      ],
      "min": [
        -0.99998396635055542,
        -0.99778705835342407,
        -0.99710845947265625,
        1
      ],
      "type": "VEC4"
    },
    {
      "bufferView": 0,
      "componentType": 5125,
      "count": 3720,
      "max": [
        3691
      ],
      "min": [
        0
      ],
      "type": "SCALAR"
    },
    {
      "bufferView": 3,
      "componentType": 5126,
      "count": 1,
      "max": [
        1,
        0,
        0,
        0,
        0,
        1,
        0,
        0,
        0,
        0,
        1,
        0,
        0,
        0,
        0,
        1
      ],
      "min": [
        1,
        0,
        0,
        0,
        0,
        1,
        0,
        0,
        0,
        0,
        1,
        0,
        0,
        0,
        0,
        1
      ],
      "type": "MAT4"
    }
  ],
  "asset": {
    "extras": {
      "author": "Eternal Realm (https://sketchfab.com/EternalRealm)",
      "license": "CC-BY-4.0 (http://creativecommons.org/licenses/by/4.0/)",
      "source": "https://sketchfab.com/models/0985ce27cfcc4911afcfba71f84df1ad",
      "title": "Low Poly Male Human"
    },
    "generator": "Sketchfab-3.18.6",
    "version": "2.0"
  },
  "bufferViews": [
    {
      "buffer": 0,
      "byteLength": 14880,
      "byteOffset": 0,
      "name": "floatBufferViews",
      "target": 34963
    },
    {
      "buffer": 0,
      "byteLength": 88608,
      "byteOffset": 14880,
      "byteStride": 12,
      "name": "floatBufferViews",
      "target": 34962
    },
    {
      "buffer": 0,
      "byteLength": 59072,
      "byteOffset": 103488,
      "byteStride": 16,
      "name": "floatBufferViews",
      "target": 34962
    },
    {
      "buffer": 0,
      "byteLength": 64,
      "byteOffset": 162560,
      "byteStride": 64,
      "name": "floatBufferViews"
    }
  ],
  "buffers": [
    {
      "byteLength": 162624,
      "uri": "scene.bin"
    }
  ],
  "extensionsRequired": [
    "KHR_materials_pbrSpecularGlossiness"
  ],
  "extensionsUsed": [
    "KHR_materials_pbrSpecularGlossiness"
  ],
  "materials": [
    {
      "doubleSided": true,
      "emissiveFactor": [
        0,
        0,
        0
      ],
      "extensions": {
        "KHR_materials_pbrSpecularGlossiness": {
          "diffuseFactor": [
            1,
            1,
            1,
            1
          ],
          "glossinessFactor": 0.59927591459999996,
          "specularFactor": [
            0.61147103660000002,
            0.61147103660000002,
            0.61147103660000002
          ]
        }
      },
      "name": "body"
    }
  ],
  "meshes": [
    {
      "name": "human_0",
      "primitives": [
        {
          "attributes": {
            "NORMAL": 1,
            "POSITION": 0,
            "TANGENT": 2
          },
          "indices": 3,
          "material": 0,
          "mode": 4
        }
      ]
    }
  ],
  "nodes": [
    {
      "children": [
        1
      ],
      "name": "RootNode (gltf orientation matrix)",
      "rotation": [
        -0.70710678118654746,
        -0,
        -0,
        0.70710678118654757
      ]
    },
    {
      "children": [
        2
      ],
      "name": "RootNode (model correction matrix)"
    },
    {
      "children": [
        3
      ],
      "name": "Root"
    },
    {
      "children": [
        4,
        5
      ],
      "name": "Armature"
    },
    {
      "name": "Armature_rootJoint"
    },
    {
      "children": [
        6
      ],
      "matrix": [
        14.807580000000002,
        0,
        0,
        0,
        0,
        -0,
        14.807580000000002,
        0,
        0,
        -14.807580000000002,
        -0,
        0,
        0,
        0,
        0,
        1
      ],
      "name": "human"
    },
    {
      "mesh": 0,
      "name": "human_0"
    }
  ],
  "scene": 0,
  "scenes": [
    {
      "name": "OSG_Scene",
      "nodes": [
        0
      ]
    }
  ],
  "skins": [
    {
      "inverseBindMatrices": 4,
      "joints": [
        4
      ],
      "skeleton": 4
    }
  ]
}

