{
  "accessors": [
    {
      "bufferView": 2,
      "componentType": 5126,
      "count": 696,
      "max": [
        0.39280000329017639,
        0.12504999339580536,
        1.7828099727630615
      ],
      "min": [
        -0.39280000329017639,
        -0.1424500048160553,
        0.0022400000598281622
      ],
      "type": "VEC3"
    },
    {
      "bufferView": 2,
      "byteOffset": 8352,
      "componentType": 5126,
      "count": 696,
      "max": [
        0.99948990345001221,
        0.99994033575057983,
        0.99999874830245972
      ],
      "min": [
        -0.99948990345001221,
        -0.99990987777709961,
        -0.99997347593307495
      ],
      "type": "VEC3"
    },
    {
      "bufferView": 1,
      "componentType": 5125,
      "count": 4164,
      "max": [
        695
      ],
      "min": [
        0
      ],
      "type": "SCALAR"
    },
    {
      "bufferView": 4,
      "componentType": 5126,
      "count": 34,
      "max": [
        1,
        0.82192999124526978,
        0.23937000334262848,
        0,
        0.379830002784729,
        1,
        0.047389999032020569,
        0,
        0.73736000061035156,
        0.9974600076675415,
        1,
        0,
        1.2419600486755371,
        1.1824500560760498,
        0.53315997123718262,
        1
      ],
      "min": [
        -0.99829000234603882,
        -0.82192999124526978,
        -0.11129999905824661,
        0,
        -0.45291998982429504,
        -0.99888002872467041,
        -0.99880999326705933,
        0,
        -0.82943999767303467,
        -0.99678999185562134,
        -0.99887001514434814,
        0,
        -1.119629979133606,
        -1.5445899963378906,
        -0.57573002576828003,
        1
      ],
      "type": "MAT4"
    },
    {
      "bufferView": 0,
      "componentType": 5123,
      "count": 696,
      "max": [
        29,
        29,
        27,
        26
      ],
      "min": [
        1,
        1,
        2,
        2
      ],
      "type": "VEC4"
    },
    {
      "bufferView": 3,
      "componentType": 5126,
      "count": 696,
      "max": [
        1,
        0.49422839283943176,
        0.25854450464248657,
        0.20433492958545685
      ],
      "min": [
        0.32933497428894043,
        0,
        0,
        0
      ],
      "type": "VEC4"
    }
  ],
  "asset": {
    "extras": {
      "author": "muh.nurzidan (https://sketchfab.com/muh.nurzidan)",
      "license": "CC-BY-4.0 (http://creativecommons.org/licenses/by/4.0/)",
      "source": "https://sketchfab.com/3d-models/character-mannequin-male-41e10234ae604060964d137480e7f996",
      "title": "Character Mannequin Male"
    },
    "generator": "Sketchfab-6.83.0",
    "version": "2.0"
  },
  "bufferViews": [
    {
      "buffer": 0,
      "byteLength": 5568,
      "byteOffset": 0,
      "byteStride": 8,
      "name": "shortBufferViews",
      "target": 34962
    },
    {
      "buffer": 0,
      "byteLength": 16656,
      "byteOffset": 5568,
      "name": "floatBufferViews",
      "target": 34963
    },
    {
      "buffer": 0,
      "byteLength": 16704,
      "byteOffset": 22224,
      "byteStride": 12,
      "name": "floatBufferViews",
      "target": 34962
    },
    {
      "buffer": 0,
      "byteLength": 11136,
      "byteOffset": 38928,
      "byteStride": 16,
      "name": "floatBufferViews",
      "target": 34962
    },
    {
      "buffer": 0,
      "byteLength": 2176,
      "byteOffset": 50064,
      "byteStride": 64,
      "name": "floatBufferViews"
    }
  ],
  "buffers": [
    {
      "byteLength": 52240,
      "uri": "scene.bin"
    }
  ],
  "materials": [
    {
      "doubleSided": true,
      "emissiveFactor": [
        0,
        0,
        0
      ],
      "name": "Material",
      "pbrMetallicRoughness": {
        "baseColorFactor": [
          0.80000001192092896,
          0.80000001192092896,
          0.80000001192092896,
          1
        ],
        "metallicFactor": 0,
        "roughnessFactor": 0.59999999999999998
      }
    }
  ],
  "meshes": [
    {
      "name": "Cube",
      "primitives": [
        {
          "attributes": {
            "JOINTS_0": 4,
            "NORMAL": 1,
            "POSITION": 0,
            "WEIGHTS_0": 5
          },
          "indices": 2,
          "material": 0,
          "mode": 4
        }
      ]
    }
  ],
  "nodes": [
    {
      "children": [
        1
      ],
      "name": "RootNode (gltf orientation matrix)",
      "rotation": [
        -0.70710678118654746,
        -0,
        -0,
        0.70710678118654757
      ]
    },
    {
      "children": [
        2
      ],
      "name": "RootNode (model correction matrix)"
    },
    {
      "children": [
        3
      ],
      "name": "Root"
    },
    {
      "children": [
        4,
        39,
        38
      ],
      "name": "Armature"
    },
    {
      "children": [
        5,
        34,
        35,
        36,
        37
      ],
      "name": "Armature_rootJoint"
    },
    {
      "children": [
        6,
        26,
        30
      ],
      "name": "Hips_Armature",
      "rotation": [
        0.7399323582649231,
        0,
        0,
        0.67268127202987671
      ],
      "scale": [
        1,
        1.0000027418136597,
        1.0000027418136597
      ],
      "translation": [
        0,
        0,
        0.88380998373031616
      ]
    },
    {
      "children": [
        7
      ],
      "name": "Spine_Armature",
      "rotation": [
        -0.083127684891223907,
        0,
        0,
        0.99653899669647217
      ],
      "scale": [
        1,
        1.0000004768371582,
        1.0000004768371582
      ],
      "translation": [
        0,
        0.17002999782562256,
        0
      ]
    },
    {
      "children": [
        8,
        10,
        18
      ],
      "name": "Chest_Armature",
      "rotation": [
        -0.03606342151761055,
        0,
        0,
        0.99934959411621094
      ],
      "scale": [
        1,
        1.0000011920928955,
        1.0000011920928955
      ],
      "translation": [
        0,
        0.22672000527381897,
        0
      ]
    },
    {
      "children": [
        9
      ],
      "name": "Neck_Armature",
      "rotation": [
        0.18949225544929504,
        0,
        0,
        0.98188221454620361
      ],
      "scale": [
        1,
        1.0000050067901611,
        1.0000050067901611
      ],
      "translation": [
        0,
        0.20983999967575073,
        0
      ]
    },
    {
      "name": "Head_Armature",
      "rotation": [
        -0.045567207038402557,
        0,
        0,
        0.99896126985549927
      ],
      "scale": [
        1,
        1.0000027418136597,
        1.0000027418136597
      ],
      "translation": [
        0,
        0.078359998762607574,
        0
      ]
    },
    {
      "children": [
        11
      ],
      "name": "Shoulder.L_Armature",
      "rotation": [
        -0.065104663372039795,
        -0.0039076586253941059,
        0.88277149200439453,
        -0.4652533233165741
      ],
      "scale": [
        1.0000045299530029,
        0.99999547004699707,
        0.99999845027923584
      ],
      "translation": [
        0.066919997334480286,
        0.17557999491691589,
        -0.0049499999731779099
      ]
    },
    {
      "children": [
        12
      ],
      "name": "Upper_Arm.L_Armature",
      "rotation": [
        -0.088030032813549042,
        -0.011843364685773849,
        -0.2760435938835144,
        0.95703208446502686
      ],
      "scale": [
        1.0000005960464478,
        1.0000026226043701,
        0.99999511241912842
      ],
      "translation": [
        0,
        0.13756999373435974,
        0
      ]
    },
    {
      "children": [
        13
      ],
      "name": "Lower_Arm.L_Armature",
      "rotation": [
        0.1826542466878891,
        -0.0093218935653567314,
        -0.068475820124149323,
        0.98074543476104736
      ],
      "scale": [
        1.0000016689300537,
        1.0000038146972656,
        0.99999845027923584
      ],
      "translation": [
        0,
        0.24690000712871552,
        0
      ]
    },
    {
      "children": [
        14,
        16
      ],
      "name": "Hand.L_Armature",
      "rotation": [
        -0.073772042989730835,
        0.021693581715226173,
        0.08666364848613739,
        0.99326556921005249
      ],
      "scale": [
        1.0000028610229492,
        0.99999582767486572,
        0.99999523162841797
      ],
      "translation": [
        0,
        0.25102999806404114,
        0
      ]
    },
    {
      "children": [
        15
      ],
      "name": "Fingers01.L_Armature",
      "rotation": [
        0.090811923146247864,
        -0.10897438228130341,
        -0.39260813593864441,
        0.90870064496994019
      ],
      "scale": [
        1,
        0.99999409914016724,
        1.0000076293945312
      ],
      "translation": [
        0,
        0.087119996547698975,
        0
      ]
    },
    {
      "name": "Fingers02.L_Armature",
      "rotation": [
        0.062124475836753845,
        -0.030911576002836227,
        -0.066921941936016083,
        0.99534249305725098
      ],
      "scale": [
        0.99999821186065674,
        0.99999445676803589,
        1.0000013113021851
      ],
      "translation": [
        0,
        0.058929998427629471,
        0
      ]
    },
    {
      "children": [
        17
      ],
      "name": "Thumb01.L_Armature",
      "rotation": [
        0.19414034485816956,
        -0.09919893741607666,
        -0.25257086753845215,
        0.94269669055938721
      ],
      "scale": [
        1.0000059604644775,
        0.99999427795410156,
        1.000001072883606
      ],
      "translation": [
        0.015440000221133232,
        0.031060000881552696,
        0.028219999745488167
      ]
    },
    {
      "name": "Thumb02.L_Armature",
      "rotation": [
        -0.11737930029630661,
        0.00064964068587869406,
        0.0013116899644955993,
        0.99308609962463379
      ],
      "scale": [
        1.0000064373016357,
        0.9999992847442627,
        0.99999433755874634
      ],
      "translation": [
        0,
        0.053339999169111252,
        0
      ]
    },
    {
      "children": [
        19
      ],
      "name": "Shoulder.R_Armature",
      "rotation": [
        -0.108660027384758,
        0.087084569036960602,
        0.8784748911857605,
        0.45704615116119385
      ],
      "scale": [
        0.99999356269836426,
        0.99999892711639404,
        1.0000032186508179
      ],
      "translation": [
        -0.066919997334480286,
        0.17557999491691589,
        -0.0049499999731779099
      ]
    },
    {
      "children": [
        20
      ],
      "name": "Upper_Arm.R_Armature",
      "rotation": [
        -0.13474178314208984,
        -0.19577635824680328,
        0.25650069117546082,
        0.93686908483505249
      ],
      "scale": [
        0.99999737739562988,
        0.99999266862869263,
        1.0000056028366089
      ],
      "translation": [
        0,
        0.13756999373435974,
        0
      ]
    },
    {
      "children": [
        21
      ],
      "name": "Lower_Arm.R_Armature",
      "rotation": [
        0.17755313217639923,
        0.11859890073537827,
        0.080785177648067474,
        0.97359281778335571
      ],
      "scale": [
        1.0000060796737671,
        1.0000038146972656,
        0.99999922513961792
      ],
      "translation": [
        0,
        0.24690000712871552,
        0
      ]
    },
    {
      "children": [
        22,
        24
      ],
      "name": "Hand.R_Armature",
      "rotation": [
        -0.057659581303596497,
        -0.027738528326153755,
        -0.098123520612716675,
        0.99311518669128418
      ],
      "scale": [
        1.0000001192092896,
        0.99999153614044189,
        0.99999719858169556
      ],
      "translation": [
        0,
        0.25102999806404114,
        0
      ]
    },
    {
      "children": [
        23
      ],
      "name": "Fingers01.R_Armature",
      "rotation": [
        0.11413287371397018,
        -0.098978646099567413,
        0.38647443056106567,
        0.9098430871963501
      ],
      "scale": [
        1.0000008344650269,
        0.99999344348907471,
        0.9999958872795105
      ],
      "translation": [
        0,
        0.087119996547698975,
        0
      ]
    },
    {
      "name": "Fingers02.R_Armature",
      "rotation": [
        0.083802960813045502,
        -0.094962671399116516,
        0.036268632858991623,
        0.99128389358520508
      ],
      "scale": [
        0.99999654293060303,
        0.99999475479125977,
        1.0000036954879761
      ],
      "translation": [
        0,
        0.058929998427629471,
        0
      ]
    },
    {
      "children": [
        25
      ],
      "name": "Thumb01.R_Armature",
      "rotation": [
        0.18536917865276337,
        -0.027231892570853233,
        0.25907599925994873,
        0.94751060009002686
      ],
      "scale": [
        0.99999052286148071,
        1.000004768371582,
        1.0000003576278687
      ],
      "translation": [
        -0.019940000027418137,
        0.031060000881552696,
        0.02525000087916851
      ]
    },
    {
      "name": "Thumb02.R_Armature",
      "rotation": [
        -0.1171167716383934,
        0.019319664686918259,
        0.0079789338633418083,
        0.99289816617965698
      ],
      "scale": [
        1.0000063180923462,
        1.0000002384185791,
        0.99999642372131348
      ],
      "translation": [
        0,
        0.053339999169111252,
        0
      ]
    },
    {
      "children": [
        27
      ],
      "name": "Upper_Leg.L_Armature",
      "rotation": [
        0.0031770078931003809,
        0.02028089202940464,
        0.99936163425445557,
        -0.029238827526569366
      ],
      "scale": [
        1.0000406503677368,
        1.0000025033950806,
        0.99997210502624512
      ],
      "translation": [
        0.087690003216266632,
        0.025310000404715538,
        0.013810000382363796
      ]
    },
    {
      "children": [
        28
      ],
      "name": "Lower_Leg.L_Armature",
      "rotation": [
        -0.015967527404427528,
        0.0076512256637215614,
        -0.00063759856857359409,
        0.9998430609703064
      ],
      "scale": [
        0.99999791383743286,
        1.0000008344650269,
        0.9999968409538269
      ],
      "translation": [
        0,
        0.3873400092124939,
        0
      ]
    },
    {
      "children": [
        29
      ],
      "name": "Foot.L_Armature",
      "rotation": [
        0.5177081823348999,
        -0.093186385929584503,
        0.056868791580200195,
        0.8485637903213501
      ],
      "scale": [
        0.99998080730438232,
        1.0000271797180176,
        1.0000045299530029
      ],
      "translation": [
        0,
        0.44936999678611755,
        0
      ]
    },
    {
      "name": "Toes.L_Armature",
      "rotation": [
        0.26984232664108276,
        -0.027946025133132935,
        0.0078336438164114952,
        0.96246713399887085
      ],
      "scale": [
        1.000008225440979,
        1.0000014305114746,
        1
      ],
      "translation": [
        0,
        0.11987999826669693,
        0
      ]
    },
    {
      "children": [
        31
      ],
      "name": "Upper_Leg.R_Armature",
      "rotation": [
        -0.0031770642381161451,
        0.020275942981243134,
        0.99936002492904663,
        0.029296489432454109
      ],
      "scale": [
        1.0000369548797607,
        0.99999934434890747,
        0.99997156858444214
      ],
      "translation": [
        -0.087690003216266632,
        0.025310000404715538,
        0.013810000382363796
      ]
    },
    {
      "children": [
        32
      ],
      "name": "Lower_Leg.R_Armature",
      "rotation": [
        -0.015969825908541679,
        0.0057958508841693401,
        0.00052759860409423709,
        0.999855637550354
      ],
      "scale": [
        0.99999982118606567,
        1.0000015497207642,
        0.99999427795410156
      ],
      "translation": [
        0,
        0.3873400092124939,
        0
      ]
    },
    {
      "children": [
        33
      ],
      "name": "Foot.R_Armature",
      "rotation": [
        0.51842612028121948,
        0.081740438938140869,
        -0.049944166094064713,
        0.84974020719528198
      ],
      "scale": [
        0.99997353553771973,
        1.0000389814376831,
        1.0000003576278687
      ],
      "translation": [
        0,
        0.44936999678611755,
        0
      ]
    },
    {
      "name": "Toes.R_Armature",
      "rotation": [
        0.26984232664108276,
        0.027946025133132935,
        -0.0078336438164114952,
        0.96246713399887085
      ],
      "scale": [
        1.000008225440979,
        1.0000014305114746,
        1
      ],
      "translation": [
        0,
        0.11987999826669693,
        0
      ]
    },
    {
      "name": "Leg_IK.L_Armature",
      "rotation": [
        0.0083302995190024376,
        0,
        0,
        0.99996531009674072
      ],
      "scale": [
        1,
        0.99999880790710449,
        0.99999880790710449
      ],
      "translation": [
        0.13615000247955322,
        0.043839998543262482,
        0.074649997055530548
      ]
    },
    {
      "name": "Pole_Target.L_Armature",
      "rotation": [
        0.99971908330917358,
        0,
        0,
        -0.02370157465338707
      ],
      "scale": [
        1,
        1.0000035762786865,
        1.0000035762786865
      ],
      "translation": [
        0.11076000332832336,
        -0.27483001351356506,
        0.52072000503540039
      ]
    },
    {
      "name": "Leg_IK.R_Armature",
      "rotation": [
        0.0083302995190024376,
        0,
        0,
        0.99996531009674072
      ],
      "scale": [
        1,
        0.99999880790710449,
        0.99999880790710449
      ],
      "translation": [
        -0.13615000247955322,
        0.043839998543262482,
        0.074649997055530548
      ]
    },
    {
      "name": "Pole_Target.R_Armature",
      "rotation": [
        0.99971908330917358,
        0,
        0,
        -0.02370157465338707
      ],
      "scale": [
        1,
        1.0000035762786865,
        1.0000035762786865
      ],
      "translation": [
        -0.11076000332832336,
        -0.27483001351356506,
        0.52072000503540039
      ]
    },
    {
      "name": "Cube"
    },
    {
      "mesh": 0,
      "name": "Cube_0",
      "skin": 0
    }
  ],
  "scene": 0,
  "scenes": [
    {
      "name": "OSG_Scene",
      "nodes": [
        0
      ]
    }
  ],
  "skins": [
    {
      "inverseBindMatrices": 3,
      "joints": [
        4,
        5,
        6,
        7,
        8,
        9,
        10,
        11,
        12,
        13,
        14,
        15,
        16,
        17,
        18,
        19,
        20,
        21,
        22,
        23,
        24,
        25,
        26,
        27,
        28,
        29,
        30,
        31,
        32,
        33,
        34,
        35,
        36,
        37
      ],
      "skeleton": 4
    }
  ]
}

